<?xml version="1.0" encoding="UTF-8"?>
<svg width="128" height="128" viewBox="0 0 128 128" xmlns="http://www.w3.org/2000/svg">
  <defs>
    <linearGradient id="bgGrad" x1="0%" y1="0%" x2="100%" y2="100%">
      <stop offset="0%" style="stop-color:#2196F3"/>
      <stop offset="100%" style="stop-color:#1976D2"/>
    </linearGradient>
    <linearGradient id="fgGrad" x1="0%" y1="0%" x2="100%" y2="100%">
      <stop offset="0%" style="stop-color:#FFF"/>
      <stop offset="100%" style="stop-color:#E3F2FD"/>
    </linearGradient>
  </defs>

  <!-- Background circle -->
  <circle cx="64" cy="64" r="60" fill="url(#bgGrad)" stroke="#0D47A1" stroke-width="2"/>

  <!-- VR Headset outline -->
  <path d="M24 54 Q24 42 36 42 L92 42 Q104 42 104 54 L104 74 Q104 86 92 86 L36 86 Q24 86 24 74 Z"
        fill="none" stroke="url(#fgGrad)" stroke-width="3"/>

  <!-- Lenses -->
  <circle cx="45" cy="64" r="12" fill="none" stroke="url(#fgGrad)" stroke-width="2"/>
  <circle cx="83" cy="64" r="12" fill="none" stroke="url(#fgGrad)" stroke-width="2"/>

  <!-- Audio waves -->
  <path d="M16 64 Q20 60 24 64 Q20 68 16 64" fill="none" stroke="#FF9800" stroke-width="2"/>
  <path d="M8 64 Q14 56 20 64 Q14 72 8 64" fill="none" stroke="#FF9800" stroke-width="2"/>
  <path d="M112 64 Q108 60 104 64 Q108 68 112 64" fill="none" stroke="#FF9800" stroke-width="2"/>
  <path d="M120 64 Q114 56 108 64 Q114 72 120 64" fill="none" stroke="#FF9800" stroke-width="2"/>

  <!-- Recording indicator -->
  <circle cx="98" cy="38" r="6" fill="#F44336"/>
  <circle cx="98" cy="38" r="3" fill="#FFEBEE"/>
</svg>